<?xml version="1.0" encoding="utf-8"?>
<!-- Generator: Adobe Illustrator 16.0.0, SVG Export Plug-In . SVG Version: 6.00 Build 0)  -->
<!DOCTYPE svg PUBLIC "-//W3C//DTD SVG 1.1//EN" "http://www.w3.org/Graphics/SVG/1.1/DTD/svg11.dtd">
<svg version="1.1" id="Layer_1" xmlns="http://www.w3.org/2000/svg" xmlns:xlink="http://www.w3.org/1999/xlink" x="0px" y="0px"
	 viewBox="0 0 800 240" enable-background="new 0 0 800 240" xml:space="preserve">
<path fill-rule="evenodd" clip-rule="evenodd" fill="#A1958A" d="M679.885,179.308c-12.492,0-18.738-5.504-18.738-16.559
	c0-4.012,1.094-10.396,3.291-19.201c2.201-8.779,3.296-14.845,3.296-18.196c0-5.014-1.76-7.531-5.295-7.531
	c-3.517,0-6.666,2.811-9.446,8.39c-0.805,1.585-1.463,3.3-2.001,5.159l-9.937,47.078h-21.081l10.711-50.652
	c0.296-1.147,0.444-2.37,0.444-3.667c0-4.279-1.441-6.429-4.323-6.429c-2.883,0-5.345,1.343-7.371,4.032
	c-2.026,2.691-3.563,5.919-4.612,9.639l-9.935,47.078h-21.11l3.415-16.152c-9.484,11.338-20.514,17.012-33.092,17.012
	c-6.957,0-12.494-1.811-16.646-5.406c-2.11-1.843-3.681-4.287-4.721-7.34c-3.317,4.808-7.415,8.313-12.288,10.518
	c-2.439,1.104-4.783,1.935-7.029,2.521l-2.196,10.59c-1.876,9.416-5.589,16.216-11.152,20.352
	c-4.103,3.058-8.813,4.597-14.104,4.597c-5.272,0-9.521-1.177-12.715-3.523c-3.199-2.324-4.788-6.087-4.788-11.249
	c0-8.926,7.96-16.046,23.868-21.352l1.787-7.876c-5.056,5.455-10.911,8.17-17.577,8.17c-4.391,0-8.101-1.369-11.153-4.158
	c-2.07-1.911-3.433-4.637-4.079-8.171c-4.561,7.113-9.951,11.126-16.152,12.035c-1.537,0.195-3.415,0.294-5.656,0.294
	c-2.224,0-4.448-0.466-6.643-1.422c-6.1-2.593-9.152-7.629-9.152-15.137c0-4.012,1.102-10.396,3.296-19.201
	c2.196-8.779,3.296-14.845,3.296-18.196c0-5.014-1.781-7.531-5.299-7.531c-3.533,0-6.683,2.811-9.446,8.39
	c-0.805,1.585-1.485,3.3-1.996,5.159l-9.935,47.078h-21.11l1.667-7.871c-5.283,5.819-11.717,8.73-19.314,8.73
	c-8.615,0-13.423-4.477-14.374-13.477c-6.371,9-13.84,13.477-22.331,13.477c-8.519,0-14.302-4.185-17.354-12.548l-0.108-0.308
	c-5.408,8.573-12.113,12.855-20.122,12.855c-5.954,0-10.396-1.466-13.301-4.403c-2.904-2.937-4.369-6.896-4.369-11.862
	c0-2.424,0.292-4.964,0.88-7.557c0.559-2.591,0.854-4.749,0.854-6.41c0-4.695-1.858-7.02-5.591-7.02
	c-1.708,0-3.416,0.659-5.149,2.007l-4.22,3.423l-6.419,30.963h-21.111l15.67-73.371h21.085l-6.272,29.079l9.151-9.439l7.003-7.681
	c4.613-4.962,8.275-8.415,11.007-10.394c2.666-1.878,5.735-2.832,9.16-2.862h0.164h0.166c3.429,0.03,5.937,0.958,7.57,2.764
	c1.637,1.836,2.466,4.185,2.466,7.019c0,2.837-0.806,5.136-2.369,6.851c-1.586,1.711-3.852,2.566-6.857,2.566
	c-3,0-5.1-0.807-6.297-2.421c-1.146-1.637-1.707-2.838-1.707-3.671v-1.417c-2.783,1.665-5.245,3.695-7.444,6.092l-5.441,6.015
	c-1.367,1.52-2.856,3.082-4.419,4.648c2.172-0.368,4.22-0.563,6.15-0.563c5.271,0,8.933,1.174,10.932,3.547
	c2.002,2.371,3.004,5.72,3.004,10.076c0,1.125-0.099,2.273-0.295,3.423l-0.632,3.522c-0.588,3.375-0.856,5.868-0.856,7.435
	c0,3.644,1.954,5.456,5.86,5.456c2.951,0,5.223-1.028,6.833-3.081c1.047-1.359,2.179-3.258,3.389-5.697
	c0.009-3.792,0.353-7.585,1.002-11.399c0.659-3.841,1.682-7.681,3.075-11.497c3.052-8.414,7.418-15.359,13.083-20.837
	c5.659-5.504,12.518-8.242,20.522-8.242c4.199,0,7.227,0.709,9.078,2.101c1.855,1.422,2.783,3.181,2.783,5.334v1.075l1.589-7.801
	h21.085l-10.519,49.868c-0.414,1.668-0.635,3.255-0.635,4.721c0,4.209,2.003,6.312,6.002,6.312c5.144,0,9.063-4.496,11.772-13.512
	l10.024-47.389h21.083l-1.561,7.607c4.762-5.457,10.467-8.171,17.083-8.171c4.688,0,8.567,1.273,11.664,3.867
	c3.104,2.566,4.641,6.381,4.641,11.47c0,5.062-0.805,10.783-2.417,17.193l-3.512,14.188c-0.759,3.105-1.151,5.626-1.151,7.581
	c0,4.207,1.782,6.311,5.373,6.311c3.292,0,5.811-1.053,7.563-3.154c1.782-2.104,3.519-5.383,5.225-9.81l9.935-47.081h21.082
	l-10.496,49.868c-0.287,1.248-0.435,2.495-0.435,3.718c0,4.306,1.389,6.459,4.197,6.459c2.779,0,5.151-1.15,7.103-3.449
	c1.901-2.324,3.417-5.184,4.518-8.583l10.223-48.013h21.089l-14.525,68.065c4.442-1.468,8.104-3.742,10.984-6.774
	c2.048-2.161,3.903-5.188,5.555-9.072c-0.013-0.418-0.018-0.846-0.018-1.273c0-11.225,2.831-22.061,8.521-32.529
	c4.272-7.876,10.177-13.549,17.645-16.972c3.794-1.809,7.71-2.713,11.744-2.741h0.192c11.737,0,17.594,4.452,17.594,13.331
	c0,3.741-0.754,6.457-2.293,8.218c-1.515,1.738-3.223,2.614-5.15,2.614c-1.901,0-3.733-0.585-5.493-1.732
	c1.198-3.158,1.781-6.045,1.781-8.66c0-4.011-1.389-6.015-4.168-6.015c-2.809,0-5.735,2.516-8.842,7.579
	c-4.441,7.167-7.487,16.07-9.148,26.734c-0.488,3.204-0.71,6.701-0.71,10.541c0,7.067,3.348,10.589,10.081,10.589
	c5.611,0,10.349-1.244,14.178-3.766c3.824-2.488,7.886-6.166,12.168-11.014l9.971-47.122h21.086l-1.559,7.607
	c4.855-5.555,10.807-8.316,17.859-8.316c8.641,0,13.645,4.205,15.035,12.595c5.366-8.314,12.181-12.449,20.379-12.449
	c4.611,0,8.471,1.273,11.567,3.867c3.098,2.566,4.664,6.356,4.664,11.322c0,4.963-0.835,10.686-2.446,17.194l-3.438,14.334
	c-0.761,3.105-1.124,5.626-1.124,7.581c0,4.207,1.782,6.311,5.346,6.311c3.296,0,5.832-1.053,7.591-3.154
	c1.106-1.326,2.201-3.114,3.295-5.36v-0.118c0-3.841,0.341-7.682,1-11.545c0.657-3.841,1.685-7.681,3.074-11.497
	c3.053-8.414,7.422-15.359,13.083-20.837c5.663-5.504,12.521-8.242,20.527-8.242c4.191,0,7.221,0.709,9.077,2.101
	c1.854,1.422,2.779,3.181,2.779,5.334v1.075l1.589-7.801h21.082l-10.512,49.868c-0.421,1.668-0.636,3.255-0.636,4.721
	c0,4.209,1.995,6.312,6.003,6.312c5.195,0,9.15-4.599,11.862-13.819h6.144c-6.195,18.099-15.981,27.149-29.382,27.149
	c-8.613,0-13.424-4.477-14.375-13.477c-6.367,9-13.839,13.477-22.332,13.477c-8.516,0-14.296-4.185-17.35-12.548l-0.085-0.227
	c-2.184,3.502-4.59,6.288-7.211,8.345C688.09,177.842,684.084,179.308,679.885,179.308L679.885,179.308z M745.753,119.043
	c0-0.907-0.437-2.055-1.264-3.474c-0.829-1.395-2.61-2.103-5.323-2.103c-2.706,0-5.366,1.444-7.931,4.355
	c-6.201,7.041-10.082,17.121-11.664,30.254c-0.246,2.003-0.342,4.132-0.342,6.381c0,4.33,0.903,7.362,2.707,9.101
	c1.049,1.052,2.365,1.565,3.932,1.565c2.904,0,5.565-1.15,7.932-3.475c2.388-2.324,4.028-5.479,4.929-9.489L745.753,119.043
	L745.753,119.043z M357.37,119.043c0-0.907-0.44-2.055-1.269-3.474c-0.831-1.395-2.613-2.103-5.321-2.103
	c-2.709,0-5.37,1.444-7.932,4.355c-6.201,7.041-10.078,17.121-11.664,30.254c-0.244,2.003-0.343,4.132-0.343,6.381
	c0,4.33,0.904,7.362,2.709,9.101c1.049,1.052,2.369,1.565,3.929,1.565c2.905,0,5.565-1.15,7.932-3.475
	c2.391-2.324,4.028-5.479,4.93-9.489L357.37,119.043L357.37,119.043z M490.842,186.398c-9.544,3.45-14.304,7.605-14.304,12.473
	c0,1.958,0.932,3.424,2.788,4.378c0.606,0.271,1.507,0.416,2.704,0.416s2.586-1.049,4.153-3.178c1.583-2.13,2.831-5.406,3.807-9.857
	L490.842,186.398z"/>
<g>
	<path fill-rule="evenodd" clip-rule="evenodd" fill="#3AC45B" d="M122.648,13.757c27.242,0,51.968,11.004,70.271,28.925
		l-12.676,16.532h26.395c11.43,17.022,18.153,37.692,18.153,59.984c0,26.149-9.238,50.085-24.502,68.494l-16.36-13.396v29.26
		c-17.056,13.239-38.272,21.084-61.281,21.084c-25.273,0-48.406-9.486-66.234-25.198l12.624-16.431H41.373
		c-13.073-17.713-20.841-39.824-20.841-63.813c0-23.345,7.37-44.943,19.821-62.401l15.239,12.47V39.7
		C73.521,23.553,97.001,13.757,122.648,13.757L122.648,13.757z M172.924,134.754h-7.396c-6.523,7.327-12.575,12.881-18.177,16.661
		c-5.603,3.857-12.798,5.707-21.09,5.707c-4.707,0-8.292-1.208-10.981-3.625c-2.49-2.416-3.835-7.405-3.835-15.041
		c0-1.698,0-4.68,0.447-8.871c13.472-0.797,25.125-5.707,35.011-14.553c9.861-8.869,15.015-19.566,15.015-32.215
		c0-6.427-1.792-11.597-5.378-15.451c-3.809-3.858-10.533-5.785-20.643-5.785c-6.05,0-12.102,1.362-17.704,4.19
		c-11.23,5.065-19.97,13.678-26.246,25.737c-8.54,15.786-12.574,32.139-12.574,49.031c0,12.573,2.913,21.572,9.189,27.049
		c6.075,5.398,14.366,8.123,24.675,8.123C136.792,175.71,156.539,162.033,172.924,134.754L172.924,134.754z M145.11,81.3
		c0-5.322-1.793-7.971-5.379-7.971c-5.404,0.154-10.558,4.911-15.488,14.322c-4.93,9.41-8.292,19.874-10.558,31.315
		c8.318-0.564,15.488-4.499,21.988-11.826C141.973,99.735,145.11,91.121,145.11,81.3L145.11,81.3z"/>
	<path fill-rule="evenodd" clip-rule="evenodd" fill="#4AD96C" d="M183.531,203.608c-7.769,6.018-16.385,10.926-25.648,14.474
		l-0.024-0.024l-33.343-43.504c13.572-2.83,25.748-10.694,36.629-23.628l22.461,23.319l-0.075,29.312V203.608z"/>
	<path fill-rule="evenodd" clip-rule="evenodd" fill="#3AC45B" d="M124.516,174.554l33.367,43.528
		c-11.08,4.244-23.058,6.559-35.559,6.559c-25.273,0-48.406-9.486-66.234-25.198l12.6-16.431h-0.05l16.285-19.077
		c0.971,1.364,2.067,2.571,3.312,3.652c6.051,5.398,14.367,8.123,24.677,8.123C116.897,175.71,120.756,175.325,124.516,174.554
		L124.516,174.554z"/>
	<path fill-rule="evenodd" clip-rule="evenodd" fill="#2CB64D" d="M160.548,139.742l-8.491-30.442
		c-1.619,2.005-3.46,3.908-5.477,5.732c-9.887,8.846-21.539,13.756-35.011,14.553c-0.449,4.191-0.449,7.173-0.449,8.871
		c0,7.636,1.345,12.625,3.811,15.041c2.688,2.417,6.275,3.625,11.005,3.625c8.292,0,15.464-1.85,21.092-5.707
		C151.26,148.534,155.767,144.652,160.548,139.742L160.548,139.742z"/>
	<path fill-rule="evenodd" clip-rule="evenodd" fill="#43CE64" d="M68.64,183.012H41.025c-11.48-15.606-18.875-34.58-20.494-55.277
		l29.931-2.159l28.636,11.313c-0.026,1.233-0.05,2.444-0.05,3.65c0,10.079,1.867,17.895,5.876,23.396L68.64,183.012z"/>
	<path fill-rule="evenodd" clip-rule="evenodd" fill="#4ADA6C" d="M55.193,69.267l-4.73,56.308l28.636,11.313
		c0.547-15.607,4.606-30.725,12.5-45.38c2.216-4.268,4.757-8.1,7.595-11.493L55.193,69.267z"/>
	<path fill-rule="evenodd" clip-rule="evenodd" fill="#3AC45B" d="M20.532,127.734c-0.199-2.803-0.324-5.657-0.324-8.536
		c0-23.345,7.346-44.891,19.796-62.375l15.189,12.444l-4.73,56.308L20.532,127.734z"/>
	<path fill-rule="evenodd" clip-rule="evenodd" fill="#43CE64" d="M180.294,58.726l26.021,0.488
		c8.99,13.396,15.065,29.028,17.232,45.947h-25.748L180.294,58.726z"/>
	<path fill-rule="evenodd" clip-rule="evenodd" fill="#3AC45B" d="M55.144,69.189l0.125,0.078V39.7
		c9.46-8.536,20.493-15.299,32.569-19.773l24.129,48.956c-4.781,2.956-9.04,6.658-12.774,11.132l-44-10.747L55.144,69.189z"/>
	<path fill-rule="evenodd" clip-rule="evenodd" fill="#4ADA6C" d="M87.838,19.927l24.129,48.956
		c1.867-1.158,3.834-2.186,5.876-3.112c5.628-2.828,11.68-4.19,17.729-4.19c1.42,0,2.765,0.025,4.035,0.102l15.588-42.346
		c-10.309-3.626-21.366-5.579-32.87-5.579C110.223,13.757,98.595,15.942,87.838,19.927L87.838,19.927z"/>
	<path fill-rule="evenodd" clip-rule="evenodd" fill="#3AC45B" d="M155.195,19.336l-15.588,42.346
		c4.357,0.257,7.969,0.952,10.881,2.083l29.807-5.04l12.301-16.044C182.012,32.32,169.289,24.272,155.195,19.336L155.195,19.336z"/>
	<path fill-rule="evenodd" clip-rule="evenodd" fill="#3AC45B" d="M172.524,134.754l25.275-29.593h25.748
		c0.598,4.602,0.897,9.281,0.897,14.038c0,26.149-9.215,50.085-24.478,68.494l-16.359-13.396v0.053l-0.075-0.053l-22.386-23.345
		c3.984-4.73,7.795-10.13,11.455-16.198l0,0H172.524z"/>
	<path fill-rule="evenodd" clip-rule="evenodd" fill="#4ADA6C" d="M180.294,58.726l0.673,0.488l16.832,45.947l-25.275,29.593h-7.345
		l-0.075,0.076l-0.074,0.078l-0.075,0.075l-0.075,0.104l0,0l-0.05,0.078l-0.074,0.076l-0.076,0.077l-0.073,0.078l-0.026,0.025
		l-0.05,0.076l-0.074,0.079l-0.074,0.077l-0.074,0.076l-0.026,0.025l-0.049,0.052l-0.075,0.076l-0.075,0.105l-0.074,0.075
		l-0.024,0.025l-0.051,0.052c-0.174,0.206-0.374,0.412-0.573,0.616v0.027l-0.073,0.076l-0.076,0.078l-0.149,0.155l0,0l-0.074,0.076
		l-0.075,0.076l-0.075,0.077l-0.074,0.078l0,0l-0.05,0.075l-0.074,0.078l-0.076,0.077l-0.074,0.079l-0.025,0.023l-0.05,0.053
		l-0.074,0.077l-0.076,0.076l-0.074,0.076l-0.025,0.026l-0.05,0.052l-0.074,0.079l-0.05,0.075l-0.076,0.077l-0.049,0.052
		l-0.025,0.026l-0.076,0.077l-0.075,0.075l-0.074,0.077l0,0l-0.125,0.129l-0.024,0.027l-0.076,0.076l-0.049,0.076l-0.075,0.053l0,0
		l-0.075,0.077l-0.074,0.077l-0.075,0.077l-0.074,0.077l0,0l-0.075,0.077l-0.075,0.075l-0.05,0.077l-0.076,0.079l0,0l-0.074,0.051
		l-0.075,0.078l-8.491-30.442c9.487-11.647,16.56-38.438-1.569-45.535L180.294,58.726z"/>
</g>
</svg>
