<?xml version="1.0" encoding="utf-8"?><svg version="1.1" id="Capa_1" xmlns="http://www.w3.org/2000/svg" xmlns:xlink="http://www.w3.org/1999/xlink" x="0px" y="0px">    <svg viewBox="0 0 371.979 140.79">        <path fill="#5C792A"              d="M70.395 18.725v51.67l-40.1-32.59a51.907 51.907 0 0 1 3.576-3.934l-.006-.006c.083-.083.17-.163.254-.246a54.91 54.91 0 0 1 1.128-1.088 53 53 0 0 1 1.529-1.368c.316-.271.637-.535.958-.798a54.482 54.482 0 0 1 1.97-1.551c.05-.03.1-.06.14-.1 1.05-.76 2.12-1.49 3.2-2.17a52.455 52.455 0 0 1 5.71-3.08c.34-.16.69-.31 1.04-.46.38-.17.77-.33 1.16-.49.89-.36 1.79-.7 2.69-1 .27-.1.55-.19.83-.28.29-.1.59-.19.89-.28.37-.11.74-.22 1.12-.33.54-.15 1.09-.29 1.63-.42.4-.1.8-.19 1.2-.28 1.27-.28 2.55-.51 3.84-.69.35-.05.7-.1 1.06-.14.29-.04.58-.07.87-.09a49.864 49.864 0 0 1 5.311-.279z"></path>        <path fill="#618015"              d="M70.395 70.395l-51.39 5.31c-.18-1.771-.28-3.53-.28-5.31v-.04l.02-1.49c.01-.32.02-.63.04-.95l.18-2.47c.04-.41.08-.82.13-1.23l.12-.96.23-1.5c.14-.82.3-1.63.48-2.44.09-.41.18-.81.28-1.22.1-.4.2-.8.31-1.21.11-.4.22-.8.34-1.2.12-.4.24-.8.37-1.19.12-.38.25-.75.37-1.12.01-.02.01-.04.03-.07.14-.39.28-.79.43-1.18.15-.39.3-.78.46-1.17a47.307 47.307 0 0 1 1.55-3.45c.19-.38.38-.76.58-1.13l1.24-2.23c.43-.73.89-1.46 1.36-2.17.22-.34.45-.68.68-1.01l.06-.09c.25-.34.49-.68.74-1.02a52.656 52.656 0 0 1 5.14-5.99l36.53 36.53z"></path>        <path fill="#688816"              d="M70.395 70.395l-32.59 40.1a51.359 51.359 0 0 1-10.704-11.898l-.067-.104a50.639 50.639 0 0 1-1.789-2.958c-.2-.37-.41-.74-.6-1.12-.2-.36-.38-.73-.57-1.11-.15-.3-.29-.6-.43-.899-.18-.381-.35-.761-.52-1.141-.18-.38-.34-.76-.49-1.149-.16-.38-.32-.771-.46-1.16-.15-.391-.3-.78-.44-1.17-.14-.391-.27-.78-.4-1.181-.13-.39-.26-.79-.38-1.189-.24-.79-.46-1.59-.66-2.391-.1-.399-.2-.8-.29-1.21-.09-.39-.17-.79-.25-1.18l-.24-1.25c-.07-.41-.13-.81-.2-1.22-.06-.41-.12-.82-.17-1.23-.05-.41-.1-.819-.14-1.229-.19-1.76-.28-3.54-.28-5.31h51.67z"></path>        <path fill="#749719"              d="M75.705 121.795c-1.77.18-3.53.27-5.31.27-.53 0-1.06-.01-1.59-.02-.3-.01-.59-.021-.89-.04-.29-.01-.58-.03-.88-.05-.26-.01-.51-.03-.77-.061-.92-.069-1.83-.17-2.75-.29-.21-.02-.43-.05-.64-.09-.37-.05-.75-.109-1.12-.17-1.23-.21-2.45-.46-3.66-.76-2.3-.561-4.57-1.28-6.79-2.16-.33-.13-.66-.27-.98-.41-.34-.14-.68-.29-1.02-.439-.33-.15-.67-.301-1-.46a47.438 47.438 0 0 1-3.94-2.08c-.33-.19-.65-.38-.97-.58-.32-.2-.64-.4-.95-.601-.63-.399-1.25-.819-1.86-1.25a.276.276 0 0 1-.07-.05c-.6-.43-1.2-.88-1.8-1.34l-.9-.72.012-.015a51.078 51.078 0 0 1-3.962-3.546l36.53-36.54 5.31 51.402z"></path>        <path fill="#80A51B"              d="M110.495 102.975a51.593 51.593 0 0 1-3.56 3.95h-.01v.01c-.61.61-1.23 1.2-1.86 1.771-.39.359-.79.71-1.2 1.05-.28.25-.57.48-.86.72-3.04 2.48-6.3 4.57-9.71 6.25-.67.33-1.34.641-2.03.94-.47.22-.95.42-1.43.609l-2.69 1c-.27.101-.55.19-.83.28l-.89.28c-.37.11-.74.22-1.12.33l-4.92 1.109c-.31.061-.62.11-.94.16l-.81.12c-.35.05-.7.101-1.06.141-.29.04-.58.069-.87.09-1.76.189-3.54.279-5.31.279V70.395l40.1 32.58z"></path>        <path fill="#8BB31D"              d="M122.065 70.395c0 .52-.01 1.03-.02 1.55-.01.31-.02.619-.04.93-.04.82-.1 1.649-.18 2.47-.04.41-.08.82-.13 1.23-.03.279-.07.55-.11.83a47.49 47.49 0 0 1-.72 4.069c-.08.41-.18.811-.28 1.221-.2.81-.41 1.609-.65 2.409-.11.4-.24.801-.37 1.19-.12.37-.24.74-.37 1.11-.12.34-.24.68-.37 1.029-.12.32-.24.641-.37.96a51.444 51.444 0 0 1-1.87 4.17c-.15.311-.31.61-.47.91-.18.36-.37.71-.57 1.061-.34.609-.7 1.21-1.06 1.81-.2.34-.41.67-.63 1-.21.32-.42.641-.63.95-.21.32-.42.63-.65.94-.22.31-.44.609-.67.92-.45.619-.92 1.229-1.41 1.819a52.46 52.46 0 0 1-3.56 3.95h-.01l-36.53-36.53 51.39-5.31c.18 1.762.28 3.542.28 5.312z"></path>        <path fill="#95C11F"              d="M20.619 20.619c-27.491 27.489-27.491 72.062-.001 99.553 27.491 27.491 72.063 27.489 99.554 0 27.491-27.491 27.49-72.062-.001-99.553-27.49-27.492-72.062-27.492-99.552 0zm6.512 6.511c23.893-23.893 62.632-23.893 86.526.002 23.895 23.894 23.895 62.632.001 86.526-23.894 23.893-62.633 23.893-86.527 0s-23.894-62.632 0-86.528zm43.265 43.264l36.532-36.532c10.091 10.088 15.136 23.311 15.136 36.534l-51.668-.002zm100.731-29.788c0-.9.72-1.71 1.71-1.71h5.94c.9 0 1.71.81 1.71 1.71v52.917h24.389a1.71 1.71 0 0 1 1.709 1.71v4.95c0 .9-.72 1.71-1.709 1.71h-32.039c-.99 0-1.71-.81-1.71-1.71V40.606zm50.41 0c0-.9.81-1.71 1.71-1.71h5.939c.9 0 1.71.81 1.71 1.71v59.578c0 .9-.81 1.71-1.71 1.71h-5.939c-.9 0-1.71-.81-1.71-1.71V40.606zm37.158-1.26c.18-.72.899-1.35 1.619-1.35h1.44c.54 0 1.35.45 1.529.99l18.809 45.987h.36l18.718-45.987c.182-.54.9-.99 1.531-.99h1.439c.721 0 1.439.63 1.619 1.35l11.07 60.477c.27 1.261-.359 2.07-1.619 2.07h-5.852c-.809 0-1.529-.63-1.709-1.26l-6.66-40.229h-.27l-16.199 41.398c-.18.54-.72.99-1.529.99h-1.62c-.72 0-1.35-.45-1.53-.99l-16.288-41.398h-.36l-6.479 40.229c-.09.63-.9 1.26-1.62 1.26h-5.85c-1.26 0-1.89-.81-1.71-2.07l11.161-60.477zm73.865 1.26c0-.9.721-1.71 1.711-1.71h35.998c.99 0 1.711.81 1.711 1.71v5.04c0 .9-.721 1.71-1.711 1.71H341.83v18.359h24.029c.9 0 1.711.81 1.711 1.71v5.04a1.71 1.71 0 0 1-1.711 1.71H341.83v19.349h28.439c.99 0 1.711.811 1.711 1.71v4.95c0 .9-.721 1.71-1.711 1.71h-35.998a1.71 1.71 0 0 1-1.711-1.71V40.606z"></path>    </svg></svg>