<svg width="178" height="26" viewBox="0 0 178 26" fill="none" xmlns="http://www.w3.org/2000/svg">
<path d="M37.8131 11.1471C31.4702 -3.73449 25.204 -3.67957 19.0145 11.3141C18.456 12.6675 17.9728 13.8885 17.5587 14.9989C18.3138 16.0499 19.0704 17.4891 19.8292 19.3232C20.0101 19.7603 20.1724 20.1681 20.3251 20.5608C20.4643 20.1974 20.611 19.822 20.7719 19.4203C24.2538 10.728 27.7805 10.6957 31.3496 19.3232C32.255 21.5132 32.9074 24.2276 33.1211 25.514C41.4201 25.2778 43.1909 23.7641 37.8131 11.1471Z" fill="#FF9C00"/>
<path d="M22.0065 11.1471C15.6629 -3.73449 9.39668 -3.67957 3.20793 11.3141C-2.15873 24.3133 -0.86081 25.5749 7.74655 25.608C7.9677 24.369 8.35864 21.6539 9.25296 19.4203C12.7357 10.728 16.2616 10.6957 19.8299 19.3232C20.0109 19.7603 20.1732 20.1681 20.3258 20.5608C20.4651 20.1974 20.6118 19.822 20.7726 19.4203C21.6386 17.2589 22.5076 15.6339 23.3789 14.5438C22.9872 13.5093 22.5345 12.3861 22.0065 11.1471Z" fill="#EF0000"/>
<path d="M22.0065 11.1471C21.5135 9.98999 21.0206 8.93449 20.5291 7.95874C20.0243 8.98114 19.5194 10.0931 19.0153 11.3141C18.4568 12.6675 17.9735 13.8885 17.5595 14.9989C17.8194 15.36 18.0792 15.77 18.3391 16.2252C18.3697 16.2778 18.4002 16.3297 18.43 16.3832C18.4918 16.493 18.5536 16.6081 18.6146 16.7232C18.6586 16.8045 18.7025 16.888 18.7464 16.9722C18.8008 17.0775 18.8552 17.1851 18.9103 17.295C18.9631 17.401 19.016 17.5086 19.0689 17.6192C19.1165 17.7185 19.1649 17.8186 19.2126 17.9209C19.2766 18.0586 19.3414 18.2 19.4055 18.3437C19.4434 18.428 19.4814 18.5107 19.5194 18.5972C19.6229 18.8327 19.7264 19.0742 19.8299 19.324C20.0109 19.7611 20.1732 20.1688 20.3258 20.5615C20.3951 20.3795 20.4666 20.1951 20.541 20.0056C20.6155 19.816 20.6922 19.6219 20.7726 19.4218C20.8813 19.1517 20.9901 18.8891 21.098 18.6348C21.1665 18.4754 21.2343 18.3256 21.3028 18.1729C21.343 18.0826 21.3832 17.9879 21.4234 17.8998C21.5165 17.6967 21.6096 17.5041 21.7027 17.313C21.7183 17.2814 21.7332 17.2468 21.7489 17.216C21.8561 16.9993 21.9626 16.7917 22.0691 16.5915C22.0705 16.5885 22.072 16.5848 22.0743 16.5818C22.5084 15.7685 22.9433 15.0907 23.3789 14.5453C22.9872 13.5093 22.5345 12.3861 22.0065 11.1471Z" fill="#FF7800"/>
<path d="M61.4839 8.36349C61.1733 8.24763 60.8107 8.1897 60.3967 8.1897C60.0147 8.1897 59.6736 8.27547 59.3743 8.44624C59.0742 8.61777 58.821 8.93976 58.614 9.41372C58.2975 10.1081 57.952 10.8409 57.5752 11.6127C57.1992 12.3839 56.8149 13.1663 56.4225 13.9607C55.975 13.1001 55.5371 12.2108 55.106 11.29C54.6748 10.3692 54.2638 9.50174 53.8714 8.68548C53.7731 8.59821 53.5765 8.49288 53.2823 8.37176C52.9882 8.25064 52.6285 8.1897 52.2033 8.1897C51.9963 8.1897 51.7997 8.21152 51.6151 8.2559C51.4289 8.30029 51.2629 8.37477 51.1162 8.47934C50.9687 8.58467 50.8488 8.73062 50.7565 8.91794C50.6634 9.10527 50.612 9.33698 50.6009 9.61233L50.0454 19.5331H52.8087L53.1684 12.7705C53.3427 13.1241 53.5333 13.5116 53.741 13.9366C53.9488 14.3617 54.1498 14.7883 54.3464 15.2178C54.543 15.6474 54.7307 16.0612 54.9109 16.4576C55.0903 16.8541 55.24 17.2017 55.3606 17.4996H57.3891C57.5201 17.2017 57.6698 16.8624 57.8388 16.4825C58.0079 16.1018 58.1881 15.7023 58.3787 15.2833C58.5693 14.8642 58.7681 14.4399 58.9759 14.0104C59.1837 13.5808 59.3847 13.1617 59.5813 12.754L59.9573 19.5331H62.7043L62.0811 8.63582C61.9939 8.57037 61.7944 8.47859 61.4839 8.36349ZM73.1681 10.7686C73.2224 10.6806 73.2932 10.5121 73.3811 10.2646C73.4674 10.0163 73.5121 9.74398 73.5121 9.44607C73.5121 9.03831 73.4049 8.72685 73.1927 8.51169C72.9804 8.29728 72.6223 8.18895 72.1219 8.18895H66.5288C65.4498 8.18895 64.91 8.71256 64.91 9.75978V19.5316H73.4295V16.9519H67.6406V15.117H72.9559C73.0102 15.029 73.081 14.8605 73.1681 14.613C73.2552 14.3647 73.2991 14.0924 73.2991 13.7944C73.2991 13.3867 73.1927 13.0752 72.9804 12.8601C72.7675 12.6449 72.41 12.5373 71.9096 12.5373H67.6413V10.7679H73.1681V10.7686ZM83.9766 8.1897H74.9664C74.912 8.27847 74.8406 8.44624 74.7542 8.6945C74.6663 8.94202 74.6231 9.21511 74.6231 9.51302C74.6231 9.92078 74.7296 10.2322 74.9418 10.4466C75.1541 10.6618 75.5115 10.7694 76.0126 10.7694H78.6293V19.5323H81.3607V10.7686H85.0236C85.0779 10.6806 85.1487 10.5121 85.2358 10.2646C85.3229 10.0163 85.3669 9.74398 85.3669 9.44607C85.3669 9.03831 85.2604 8.72685 85.0482 8.51169C84.8359 8.29728 84.4785 8.1897 83.9766 8.1897ZM94.6801 9.25648C94.2818 8.8871 93.756 8.58918 93.1015 8.36349C92.4477 8.13704 91.6301 8.02419 90.6486 8.02419C90.1914 8.02419 89.8012 8.03021 89.4795 8.04074C89.1578 8.05203 88.8853 8.06482 88.6619 8.08212C88.4385 8.09942 88.2531 8.11823 88.1064 8.14005C87.959 8.16187 87.8309 8.18444 87.7214 8.20625C87.5799 8.22807 87.4407 8.26945 87.3044 8.33038C87.1674 8.39057 87.0475 8.47859 86.9448 8.5952C86.8405 8.7103 86.7564 8.857 86.6908 9.03305C86.6253 9.20909 86.5926 9.41898 86.5926 9.66123V19.5323H89.2584V15.8453C89.2911 15.8453 89.3589 15.8535 89.4624 15.8701C89.5659 15.8866 89.694 15.9002 89.8466 15.9115C89.9993 15.9227 90.1691 15.934 90.3545 15.9446C90.5392 15.9558 90.7305 15.9611 90.9271 15.9611C91.7775 15.9611 92.5102 15.8648 93.1261 15.6715C93.7419 15.4789 94.2468 15.2088 94.6384 14.8612C95.0309 14.5144 95.3198 14.0976 95.5052 13.6131C95.6906 13.1286 95.7837 12.5938 95.7837 12.0092C95.7837 11.5021 95.6988 11.0086 95.5298 10.5294C95.3615 10.0494 95.0785 9.62587 94.6801 9.25648ZM92.8975 12.5795C92.8379 12.7728 92.721 12.9458 92.546 13.1001C92.3717 13.255 92.129 13.3784 91.8177 13.4725C91.5072 13.5657 91.1006 13.6131 90.5995 13.6131C90.1631 13.6131 89.8496 13.5988 89.659 13.5718C89.4676 13.5439 89.3343 13.5244 89.2584 13.5138V10.4557C89.3127 10.4444 89.4602 10.4308 89.7 10.4135C89.9397 10.3977 90.2502 10.3887 90.6322 10.3887C91.155 10.3887 91.5727 10.4414 91.8832 10.546C92.1938 10.6513 92.4313 10.7829 92.5951 10.9424C92.7582 11.1027 92.8647 11.2757 92.9138 11.463C92.9622 11.6511 92.9876 11.8324 92.9876 12.0092C92.9876 12.1965 92.9578 12.3869 92.8975 12.5795ZM107.411 9.61985C106.866 9.08496 106.222 8.66366 105.481 8.35446C104.74 8.04601 103.944 7.89178 103.094 7.89178C102.243 7.89178 101.447 8.04601 100.706 8.35446C99.9649 8.66291 99.3215 9.08496 98.7764 9.61985C98.2313 10.1547 97.8032 10.7859 97.4927 11.5134C97.1814 12.2409 97.0265 13.0241 97.0265 13.8614C97.0265 14.6987 97.1814 15.4811 97.4927 16.2086C97.8032 16.9369 98.2306 17.5681 98.7764 18.1022C99.3208 18.6371 99.9649 19.0584 100.706 19.3676C101.447 19.676 102.243 19.8303 103.094 19.8303C103.944 19.8303 104.74 19.676 105.481 19.3676C106.222 19.0591 106.866 18.6371 107.411 18.1022C107.956 17.5681 108.384 16.9369 108.695 16.2086C109.006 15.4811 109.161 14.6987 109.161 13.8614C109.161 13.0241 109.006 12.2409 108.695 11.5134C108.384 10.7859 107.956 10.1547 107.411 9.61985ZM106.062 15.2005C105.904 15.6083 105.683 15.9671 105.399 16.2748C105.116 16.584 104.778 16.8233 104.386 16.994C103.993 17.1656 103.563 17.2506 103.095 17.2506C102.626 17.2506 102.195 17.1656 101.803 16.994C101.41 16.8233 101.073 16.584 100.789 16.2748C100.505 15.9671 100.284 15.6083 100.126 15.2005C99.9679 14.7928 99.8897 14.3459 99.8897 13.8614C99.8897 13.3769 99.9679 12.927 100.126 12.5133C100.284 12.1002 100.505 11.7421 100.789 11.4389C101.073 11.1358 101.41 10.8988 101.803 10.728C102.195 10.5572 102.626 10.4715 103.095 10.4715C103.563 10.4715 103.993 10.5565 104.386 10.728C104.778 10.8995 105.116 11.1358 105.399 11.4389C105.683 11.7414 105.904 12.1002 106.062 12.5133C106.22 12.927 106.299 13.3762 106.299 13.8614C106.299 14.3466 106.22 14.7928 106.062 15.2005ZM119.373 16.6013C119.063 16.1048 118.752 15.6271 118.441 15.1689C118.131 14.7115 117.839 14.3 117.566 13.9351C117.904 13.6274 118.209 13.2528 118.482 12.8127C118.972 12.0197 119.422 11.2689 119.831 10.5595C120.24 9.85006 120.569 9.25272 120.82 8.76823C120.624 8.61401 120.401 8.47859 120.15 8.36349C119.899 8.24763 119.55 8.1897 119.104 8.1897C118.711 8.1897 118.404 8.26192 118.18 8.40486C117.956 8.5478 117.768 8.7246 117.616 8.93374C117.463 9.13235 117.319 9.36331 117.183 9.62813C117.046 9.89294 116.899 10.1743 116.74 10.4715C116.582 10.7694 116.408 11.0666 116.218 11.3645C116.026 11.6624 115.811 11.9325 115.572 12.1747C115.419 12.3289 115.22 12.4531 114.975 12.5464C114.729 12.6404 114.415 12.6878 114.034 12.6878H113.691V8.45452C113.625 8.4327 113.47 8.38305 113.225 8.30631C112.979 8.22882 112.698 8.19045 112.383 8.19045C111.957 8.19045 111.614 8.28148 111.352 8.46354C111.09 8.64485 110.96 8.96233 110.96 9.41447V19.5331H113.691V15.2013H114.214C114.486 15.2013 114.754 15.1847 115.015 15.1516C115.538 15.8242 116.034 16.5404 116.503 17.301C116.972 18.0616 117.419 18.8056 117.844 19.5331H121.065C120.837 19.0915 120.575 18.6168 120.28 18.109C119.985 17.6012 119.684 17.0986 119.373 16.6013ZM130.542 9.25648C130.144 8.8871 129.618 8.58918 128.964 8.36349C128.31 8.13704 127.492 8.02419 126.511 8.02419C126.054 8.02419 125.663 8.03021 125.342 8.04074C125.021 8.05128 124.748 8.06482 124.524 8.08212C124.301 8.09867 124.115 8.11823 123.969 8.14005C123.821 8.16187 123.693 8.18444 123.584 8.20625C123.442 8.22807 123.303 8.26945 123.167 8.33038C123.03 8.39057 122.91 8.47859 122.807 8.5952C122.703 8.7103 122.619 8.857 122.554 9.03305C122.488 9.20909 122.455 9.41898 122.455 9.66123V19.5323H125.121V15.8453C125.153 15.8453 125.222 15.8535 125.325 15.8701C125.429 15.8866 125.557 15.9002 125.709 15.9115C125.862 15.9227 126.031 15.934 126.217 15.9446C126.402 15.9558 126.593 15.9611 126.789 15.9611C127.64 15.9611 128.372 15.8648 128.989 15.6715C129.604 15.4789 130.109 15.2088 130.501 14.8612C130.893 14.5144 131.183 14.0976 131.368 13.6131C131.553 13.1279 131.646 12.5938 131.646 12.0092C131.646 11.5021 131.562 11.0086 131.392 10.5294C131.224 10.0494 130.94 9.62587 130.542 9.25648ZM128.76 12.5795C128.699 12.7728 128.582 12.9458 128.407 13.1001C128.233 13.255 127.99 13.3784 127.68 13.4725C127.369 13.5657 126.963 13.6131 126.461 13.6131C126.024 13.6131 125.711 13.5988 125.52 13.5718C125.33 13.5439 125.196 13.5244 125.12 13.5138V10.4557C125.174 10.4444 125.322 10.4308 125.561 10.4135C125.801 10.3977 126.112 10.3887 126.494 10.3887C127.017 10.3887 127.434 10.4414 127.745 10.546C128.056 10.6513 128.293 10.7829 128.456 10.9424C128.62 11.1027 128.726 11.2757 128.775 11.463C128.824 11.6511 128.849 11.8324 128.849 12.0092C128.849 12.1965 128.819 12.3869 128.76 12.5795ZM141.637 10.7686C141.692 10.6806 141.763 10.5121 141.85 10.2646C141.937 10.0163 141.981 9.74398 141.981 9.44607C141.981 9.03831 141.874 8.72685 141.662 8.51169C141.449 8.29728 141.092 8.18895 140.591 8.18895H134.998C133.919 8.18895 133.379 8.71256 133.379 9.75978V19.5316H141.899V16.9519H136.11V15.117H141.425C141.479 15.029 141.55 14.8605 141.637 14.613C141.725 14.3647 141.769 14.0924 141.769 13.7944C141.769 13.3867 141.662 13.0752 141.449 12.8601C141.237 12.6449 140.879 12.5373 140.378 12.5373H136.111V10.7679H141.637V10.7686ZM153.509 16.9196H153.46V9.66123C153.46 9.41898 153.428 9.20909 153.363 9.03305C153.297 8.857 153.212 8.7103 153.109 8.5952C153.004 8.47934 152.885 8.39132 152.749 8.33038C152.613 8.26945 152.474 8.22807 152.332 8.20625C152.114 8.16187 151.827 8.12124 151.473 8.08212C151.12 8.043 150.691 8.02419 150.19 8.02419C149.524 8.02419 148.933 8.0904 148.415 8.2228C147.898 8.35521 147.442 8.57865 147.05 8.89312C146.658 9.20683 146.324 9.6206 146.052 10.1329C145.779 10.6453 145.556 11.287 145.382 12.0589C145.262 12.5449 145.161 12.9774 145.079 13.3574C144.998 13.738 144.916 14.1074 144.834 14.4655C144.753 14.8244 144.665 15.196 144.572 15.5812C144.48 15.9679 144.373 16.4133 144.253 16.9203C143.871 16.9203 143.566 17.0301 143.338 17.2506C143.109 17.4718 142.994 17.7855 142.994 18.1932V22.5243H145.726V19.5316H152.038V22.5243H154.769V18.1925C154.769 17.7847 154.655 17.471 154.425 17.2498C154.196 17.0301 153.891 16.9196 153.509 16.9196ZM150.73 16.9196H147.099L148.097 12.6208C148.195 12.2018 148.304 11.8595 148.423 11.5954C148.543 11.3314 148.683 11.1215 148.841 10.9672C148.999 10.813 149.181 10.7085 149.388 10.6535C149.595 10.5986 149.84 10.5708 150.124 10.5708C150.233 10.5708 150.345 10.5738 150.459 10.5791C150.573 10.5851 150.663 10.5986 150.729 10.6204V16.9196H150.73ZM164.695 8.1897C164.281 8.1897 163.937 8.26945 163.665 8.42969C163.392 8.58918 163.12 8.86227 162.846 9.24821L158.906 14.853V8.45376C158.84 8.43195 158.685 8.38229 158.44 8.30556C158.195 8.22882 157.919 8.1897 157.614 8.1897C157.199 8.1897 156.862 8.28073 156.6 8.46279C156.338 8.6441 156.208 8.96158 156.208 9.41372V19.5323H158.775C158.874 19.3668 159.026 19.1246 159.233 18.8049C159.44 18.4851 159.68 18.1188 159.953 17.705C160.225 17.2912 160.517 16.8511 160.828 16.3824C161.139 15.9137 161.444 15.451 161.743 14.9929C162.043 14.5362 162.329 14.1082 162.601 13.7117C162.874 13.3152 163.109 12.9737 163.304 12.687V19.5323H166.003V8.43797C165.796 8.36048 165.593 8.29954 165.398 8.2559C165.202 8.21152 164.967 8.1897 164.695 8.1897ZM177.654 8.51169C177.442 8.29728 177.084 8.18895 176.584 8.18895H167.573C167.518 8.27772 167.448 8.44549 167.36 8.69375C167.273 8.94126 167.229 9.21435 167.229 9.51227C167.229 9.92002 167.336 10.2315 167.548 10.4459C167.761 10.6611 168.119 10.7686 168.619 10.7686H171.236V19.5316H173.967V10.7686H177.63C177.684 10.6806 177.755 10.5121 177.843 10.2646C177.929 10.0163 177.973 9.74398 177.973 9.44607C177.973 9.03906 177.867 8.72761 177.654 8.51169Z" fill="#7E7E7E"/>
</svg>
