<?xml version="1.0" encoding="UTF-8"?>
<svg width="213px" height="52px" viewBox="0 0 213 52" version="1.1" xmlns="http://www.w3.org/2000/svg" xmlns:xlink="http://www.w3.org/1999/xlink">
    <!-- Generator: Sketch 43.2 (39069) - http://www.bohemiancoding.com/sketch -->
    <title>Logotype</title>
    <desc>Created with Sketch.</desc>
    <defs></defs>
    <g id="Zaymer-Home-Page" stroke="none" stroke-width="1" fill="none" fill-rule="evenodd">
        <g id="Zaymer---Home-Page---1140" transform="translate(-389.000000, -24.000000)">
            <g id="Шапка">
                <g id="Logotype" transform="translate(389.000000, 24.000000)">
                    <path d="M154.486207,14.1057407 C153.996552,15.7923233 153.490983,17.4776845 153.001328,19.1654883 C151.842477,23.1631325 150.685667,27.161591 149.530897,31.1608636 C149.163655,32.4297697 148.605448,32.8425611 147.280931,32.8425611 L145.444724,32.8425611 C144.343,32.8425611 143.75419,32.4248846 143.437138,31.3452764 C142.457828,27.9953156 141.487086,24.6392484 140.511448,21.2868451 C139.858575,19.0437677 139.203253,16.8015045 138.545483,14.5600555 C138.508649,14.395555 138.425889,14.2448183 138.306776,14.1252812 L138.306776,14.7579023 L138.306776,30.8787488 C138.306776,32.2697825 137.731431,32.8474462 136.348155,32.8486674 C135.450862,32.8486674 134.553569,32.8559951 133.655052,32.8486674 C132.5925,32.8376759 131.941259,32.1928421 131.941259,31.1278892 C131.936362,23.5559764 131.936362,15.9865062 131.941259,8.4194785 C131.941259,7.38261496 132.583931,6.72678961 133.609759,6.72190451 C135.791989,6.70969175 137.974218,6.70969175 140.156448,6.72190451 C141.084345,6.72190451 141.686621,7.1798831 141.957155,8.15568283 C142.754069,11.034231 143.522828,13.9201068 144.300155,16.80354 C144.997914,19.3914244 145.693224,21.9793088 146.42281,24.690542 C146.514621,24.4243038 146.578276,24.2728656 146.619897,24.1153209 C148.007253,18.9558358 149.394609,13.7963508 150.781966,8.63686568 C151.20919,7.04920654 151.631517,6.71824068 153.263293,6.71824068 L159.139155,6.71824068 C160.324121,6.71824068 160.945983,7.34109157 160.947207,8.52695081 L160.947207,31.0521701 C160.947207,32.2258165 160.311879,32.8450036 159.12569,32.8498887 L156.432586,32.8498887 C155.208448,32.8498887 154.584138,32.2392506 154.584138,31.0179743 L154.584138,14.7750001 L154.584138,14.1252812 L154.486207,14.1057407 Z" id="Shape" fill="#4B5959"></path>
                    <path d="M120.559224,16.1428295 C119.048638,19.0901762 117.538868,22.0375229 116.029914,24.9848696 C114.880856,27.2287612 113.733431,29.473874 112.587638,31.7202082 C112.187345,32.5067101 111.578948,32.8779781 110.671862,32.8535525 C109.224931,32.8144717 107.775552,32.8462249 106.327397,32.8425611 C105.177931,32.8425611 104.52669,32.2136038 104.525466,31.0875871 L104.525466,8.43779765 C104.525466,7.36551709 105.16569,6.72801089 106.231914,6.71335557 C107.190414,6.70236409 108.148914,6.70602792 109.108638,6.71335557 C110.256879,6.72068323 110.886086,7.3447554 110.88731,8.48909125 L110.88731,23.1444063 L110.88731,23.8002317 L110.986466,23.8393125 C111.102759,23.642687 111.231293,23.4509466 111.331672,23.2482148 C113.920724,18.20068 116.519569,13.1580304 119.08169,8.09706157 C119.571345,7.13347461 120.210345,6.64130027 121.330431,6.69992154 C122.612103,6.76587045 123.901121,6.71335557 125.185241,6.71579813 C126.422845,6.71579813 127.042259,7.32643625 127.042259,8.53672102 L127.042259,31.0082041 C127.042259,32.2294804 126.43019,32.8474462 125.206052,32.8523313 L122.451741,32.8523313 C121.314517,32.8450036 120.681638,32.2111612 120.681638,31.0656041 L120.681638,16.8401783 L120.681638,16.1770253 L120.559224,16.1428295 Z" id="Shape" fill="#4B5959"></path>
                    <path d="M172.252121,27.3455966 L172.97069,27.3455966 L184.967241,27.3455966 C186.152207,27.3455966 186.770397,27.9684475 186.776517,29.1518642 C186.776517,29.8235661 186.78631,30.4952681 186.776517,31.16697 C186.759379,32.1635315 186.122828,32.8364547 185.138621,32.8376759 C179.262759,32.846632 173.386897,32.846632 167.511034,32.8376759 C166.517034,32.8376759 165.851103,32.1781868 165.849879,31.1913956 C165.842534,23.5804019 165.842534,15.9677799 165.849879,8.35352958 C165.849879,7.36307454 166.50969,6.70969175 167.508586,6.70847047 C173.384448,6.70032863 179.26031,6.70032863 185.136172,6.70847047 C186.127724,6.70847047 186.759379,7.37406603 186.776517,8.37307 C186.787534,9.04477194 186.776517,9.71647389 186.776517,10.3881758 C186.770397,11.5728138 186.152207,12.1956647 184.968466,12.196886 L172.971914,12.196886 L172.255793,12.196886 L172.255793,17.081991 L184.83381,17.081991 C186.186483,17.081991 186.772845,17.6633185 186.775293,19.0030585 L186.775293,20.8349729 C186.764276,21.9341215 186.131397,22.572849 185.021103,22.5740703 C180.961862,22.5789554 176.902621,22.5789554 172.843379,22.5740703 L172.254569,22.5740703 L172.252121,27.3455966 Z" id="Shape" fill="#4B5959"></path>
                    <path d="M89.5542586,6.70969175 L91.7577069,6.70969175 C92.6390862,6.7170194 93.1360862,7.04310016 93.4396724,7.85158504 C96.2535575,15.3420794 99.062954,22.8362376 101.867862,30.3340596 C102.441983,31.8692039 101.731983,32.8413398 100.080621,32.8425611 L97.2651034,32.8425611 C96.1548103,32.8425611 95.7153448,32.5360207 95.3456552,31.5150338 C94.9759655,30.4940468 94.6001552,29.4950428 94.2537241,28.4752772 C94.1521207,28.1760645 94.0088966,28.0685922 93.6918448,28.0698134 C90.9171322,28.0820262 88.1424195,28.0820262 85.3677069,28.0698134 C85.0518793,28.0698134 84.9025345,28.1626304 84.7997069,28.4667282 C84.4398103,29.5243535 84.0517586,30.5722085 83.6673793,31.6212848 C83.3478793,32.4969399 82.8582241,32.8425611 81.9168621,32.8425611 C80.8359483,32.8425611 79.7550345,32.8535525 78.6753448,32.8425611 C77.4512069,32.8279057 76.68,31.8472209 77.0839655,30.6979999 C78.1195862,27.7901412 79.2139655,24.9030441 80.2948793,22.0110619 C82.0437644,17.3303172 83.7983621,12.6507936 85.5586724,7.97249139 C85.91,7.03455123 86.3788448,6.71457685 87.4083448,6.71091302 C88.1281379,6.70847047 88.8405862,6.70969175 89.5542586,6.70969175 Z M89.602,14.2046641 L89.4538793,14.2046641 L86.7020172,22.5545299 L92.3575345,22.5545299 L89.602,14.2046641 Z" id="Shape" fill="#4B5959"></path>
                    <path d="M198.034914,24.5366612 L198.034914,30.9825573 C198.034914,32.236808 197.422845,32.8401185 196.15219,32.8425611 C195.234086,32.8425611 194.315983,32.8498887 193.397879,32.8425611 C192.331655,32.8327908 191.674293,32.1928421 191.673069,31.1327743 C191.668172,23.5608615 191.668172,15.9889487 191.673069,8.41703595 C191.673069,7.35208306 192.320638,6.70724919 193.394207,6.70724919 C196.657759,6.70724919 199.922534,6.66938963 203.18731,6.73045344 C204.368625,6.75278079 205.544074,6.90223474 206.693241,7.17621927 C210.610483,8.11415944 212.728241,10.6483077 212.926552,14.6540938 C212.999239,15.912003 212.904565,17.1739759 212.645,18.4070757 C211.910517,21.7301684 209.584655,23.4839211 206.37619,24.1397465 C205.107983,24.398657 203.79081,24.4633847 202.490776,24.5183421 C201.027931,24.5855123 199.562638,24.5366612 198.034914,24.5366612 Z M198.080207,12.2115413 L198.080207,19.0335904 C199.898052,19.0335904 201.671828,19.084884 203.440707,19.0189351 C205.209586,18.9529862 206.602655,17.4153994 206.602655,15.6201233 C206.602655,13.8248472 205.220603,12.2884817 203.43581,12.2249753 C201.651017,12.1614689 199.894379,12.2127626 198.080207,12.2127626 L198.080207,12.2115413 Z" id="Shape" fill="#4B5959"></path>
                    <path d="M71.6965345,18.5633991 C72.3979655,18.9761905 73.1287759,19.3108201 73.7457414,19.7846753 C75.3591552,21.038926 75.899,22.7816873 75.8096379,24.7577122 C75.6186724,29.0065323 72.2596379,31.7922635 68.2836379,32.5738803 C65.7126461,33.0889703 63.0539742,32.9631223 60.5434138,32.2074974 C57.3606552,31.2536806 55.1963793,29.2764344 54.4104828,25.9472353 C54.1203621,24.7259591 54.7605862,23.8246572 56.0153276,23.8136657 C57.075431,23.8051168 58.1367586,23.8136657 59.1980862,23.8136657 C60.0880345,23.8136657 60.554431,24.1409677 60.8788276,24.955559 C61.9279138,27.5984008 65.1804483,28.6877792 67.6556552,27.2210264 C68.6349655,26.6421415 69.1246207,25.7872481 69.074431,24.6380272 C69.0242414,23.4888062 68.4954138,22.5484235 67.4083793,22.1563938 C66.5661724,21.852296 65.630931,21.7301684 64.7287414,21.6813174 C63.2597759,21.6019344 62.7395172,21.1500622 62.7260517,19.6869732 C62.7166122,19.2601254 62.7333734,18.8331013 62.7762414,18.408297 C62.8680517,17.6108036 63.4519655,17.1137442 64.2647931,17.0783272 C64.8768621,17.0526803 65.488931,17.0709995 66.0863103,16.9561995 C67.6654483,16.653323 68.5480517,15.6127956 68.4672586,14.2510726 C68.3913621,12.9638474 67.2247586,11.7999712 65.7484483,11.7437925 C64.8536034,11.7095967 63.9306034,11.874469 63.0553448,12.0808647 C62.3428966,12.2481796 61.8006034,12.7647794 61.5043621,13.4548005 C61.0795862,14.4452555 60.3695862,14.8641533 59.285,14.7713363 C58.5150172,14.7053874 57.7352414,14.7591235 56.9591379,14.7579023 C55.5415862,14.7579023 54.8377069,13.8566004 55.2012759,12.4643455 C55.7068448,10.5286226 56.8991552,9.10705703 58.6092759,8.11049561 C60.1394483,7.21896394 61.8385517,6.86601511 63.5756034,6.74022365 C65.6370517,6.59000667 67.6911552,6.69259388 69.6889483,7.30078945 C71.0159138,7.70503189 72.2131207,8.32544023 73.1936552,9.33177186 C75.8683966,12.0759796 75.3236552,16.3773146 72.0441897,18.3533396 L71.6965345,18.5633991 Z" id="Shape" fill="#4B5959"></path>
                    <path d="M116.498759,5.49574315 C114.762931,5.46154741 113.309879,5.21851344 111.997603,4.42712642 C111.237414,3.96914783 110.576379,3.39636927 110.207914,2.56834396 C109.839448,1.74031866 110.0855,0.895195495 110.784483,0.410348822 C111.479917,-0.0917370425 112.445838,0.0265233805 112.998948,0.68147215 C114.325914,2.17509301 115.989517,2.31309723 117.744931,1.83191438 C118.368017,1.66093571 118.932345,1.17364648 119.446483,0.738872134 C119.960621,0.304097788 120.511483,-0.0146553151 121.214138,0.168536123 C121.849334,0.311639802 122.341382,0.813053573 122.471328,1.44965491 C122.620672,2.0676207 122.404,2.60986736 122.033086,3.09837786 C120.997466,4.46376471 119.54319,5.07806667 117.911414,5.35041127 C117.370345,5.44322827 116.818259,5.46643252 116.498759,5.49574315 Z" id="Shape" fill="#4B5959"></path>
                    <path d="M54.5451379,42.6017796 L58.3007931,42.6017796 C60.2594138,42.6017796 61.672069,43.3675198 61.672069,45.4742214 C61.672069,47.3891825 60.4369138,48.2746078 58.6606897,48.2746078 L56.7767414,48.2746078 L56.7767414,51.1238453 L54.5451379,51.1238453 L54.5451379,42.6017796 Z M58.0363793,46.551387 C58.8039138,46.551387 59.5126897,46.4915445 59.5126897,45.4986469 C59.5126897,44.6730641 58.9973276,44.4214812 58.2175517,44.4214812 L56.7767414,44.4214812 L56.7767414,46.5526083 L58.0363793,46.551387 Z" id="Shape" fill="#7D8888" fill-rule="nonzero"></path>
                    <path d="M66.7693793,51.3277984 C64.1301379,51.3277984 62.4848966,49.4604671 62.4848966,46.8628125 C62.4848966,44.3372132 64.1766552,42.3978265 66.7436724,42.3978265 C69.287431,42.3978265 70.9302241,44.13326 70.9302241,46.8738039 C70.9326724,49.3774203 69.3608793,51.3277984 66.7693793,51.3277984 Z M66.7216379,44.2102004 C65.5219828,44.2102004 64.7630172,45.2275236 64.7630172,46.843272 C64.7630172,48.5066503 65.4975,49.5007692 66.7302069,49.5007692 C67.9421034,49.5007692 68.6496552,48.5078716 68.6496552,46.807855 C68.6533276,45.1872214 67.9212931,44.2102004 66.7216379,44.2102004 Z" id="Shape" fill="#7D8888" fill-rule="nonzero"></path>
                    <path d="M76.2711379,51.1250666 L72.180069,51.1250666 L72.180069,42.6017796 L78.9128276,42.6017796 L78.9128276,44.3970557 L74.3835172,44.3970557 L74.3835172,45.4510171 L76.3862069,45.4510171 C78.3778793,45.4510171 79.6375172,46.3364424 79.6375172,48.2514036 C79.6424138,50.3165817 78.3950172,51.1250666 76.2711379,51.1250666 Z M75.9112414,47.1876719 L74.3749483,47.1876719 L74.3749483,49.318799 L75.9663276,49.318799 C76.9138103,49.318799 77.381431,49.0672161 77.381431,48.2416334 C77.3863276,47.293923 76.6787759,47.1864507 75.9112414,47.1864507 L75.9112414,47.1876719 Z" id="Shape" fill="#7D8888" fill-rule="nonzero"></path>
                    <path d="M84.8609138,51.3277984 C82.2216724,51.3277984 80.576431,49.4604671 80.576431,46.8628125 C80.576431,44.3372132 82.2681897,42.3978265 84.8352069,42.3978265 C87.3789655,42.3978265 89.0217586,44.13326 89.0217586,46.8738039 C89.0229828,49.3774203 87.4524138,51.3277984 84.8609138,51.3277984 Z M84.8131724,44.2065366 C83.6135172,44.2065366 82.8545517,45.2238597 82.8545517,46.8396082 C82.8545517,48.5029865 83.5890345,49.4971053 84.8217414,49.4971053 C86.0336379,49.4971053 86.7411897,48.5042077 86.7411897,46.8041912 C86.7436379,45.1872214 86.0116034,44.2102004 84.8119483,44.2102004 L84.8131724,44.2065366 Z" id="Shape" fill="#7D8888" fill-rule="nonzero"></path>
                    <polygon id="Shape" fill="#7D8888" fill-rule="nonzero" points="97.0606724 44.4935365 94.5291552 44.4935365 94.5291552 51.1250666 92.273069 51.1250666 92.273069 44.4935365 89.7415517 44.4935365 89.7415517 42.6017796 97.0594483 42.6017796"></polygon>
                    <path d="M105.887931,51.3277984 C103.24869,51.3277984 101.603448,49.4604671 101.603448,46.8628125 C101.603448,44.3372132 103.295207,42.3978265 105.862224,42.3978265 C108.405983,42.3978265 110.048776,44.13326 110.048776,46.8738039 C110.05,49.3774203 108.481879,51.3277984 105.887931,51.3277984 Z M105.84019,44.2065366 C104.640534,44.2065366 103.881569,45.2238597 103.881569,46.8396082 C103.881569,48.5029865 104.616052,49.4971053 105.848759,49.4971053 C107.060655,49.4971053 107.768207,48.5042077 107.768207,46.8041912 C107.774328,45.1872214 107.042293,44.2102004 105.842638,44.2102004 L105.84019,44.2065366 Z" id="Shape" fill="#7D8888" fill-rule="nonzero"></path>
                    <polygon id="Shape" fill="#7D8888" fill-rule="nonzero" points="118.678948 51.1250666 116.435103 51.1250666 116.435103 47.6053484 113.54369 47.6053484 113.54369 51.1238453 111.299845 51.1238453 111.299845 42.6017796 113.54369 42.6017796 113.54369 45.6415362 116.435103 45.6415362 116.435103 42.6017796 118.678948 42.6017796"></polygon>
                    <path d="M127.616379,51.1250666 L125.372534,51.1250666 L125.372534,44.4935365 L123.477569,44.4935365 L123.369845,47.8093016 C123.285379,50.2152158 122.217931,51.2923814 120.753862,51.2923814 C120.357343,51.2875809 119.96282,51.2355108 119.57869,51.1372794 L119.57869,49.354216 C119.79098,49.426897 120.014063,49.4632335 120.2385,49.4616883 C120.742845,49.4616883 121.150483,49.2467437 121.198224,47.4990974 L121.342672,42.6042222 L127.617603,42.6042222 L127.616379,51.1250666 Z" id="Shape" fill="#7D8888" fill-rule="nonzero"></path>
                    <path d="M136.961448,51.1250666 L134.655172,51.1250666 L134.103086,49.5691606 L131.15169,49.5691606 L130.587362,51.1250666 L128.308017,51.1250666 L131.511586,42.5907881 L133.766448,42.5907881 L136.961448,51.1250666 Z M132.64269,44.9844896 L131.663379,47.9644036 L133.60731,47.9644036 L132.64269,44.9844896 Z" id="Shape" fill="#7D8888" fill-rule="nonzero"></path>
                    <path d="M145.046879,51.1250666 L142.875259,51.1250666 L143.030724,45.4510171 L140.114828,51.1250666 L137.666552,51.1250666 L137.666552,42.6017796 L139.838172,42.6017796 L139.753707,48.2758291 L142.669603,42.6017796 L145.045655,42.6017796 L145.046879,51.1250666 Z M141.520138,42.1841031 C140.392707,42.1841031 139.324034,41.6577331 139.324034,40.3766143 L140.355983,40.3766143 C140.463707,40.8431418 140.95581,41.0702992 141.520138,41.0702992 C142.084466,41.0702992 142.576569,40.8431418 142.684293,40.3766143 L143.713793,40.3766143 C143.713793,41.6565118 142.647569,42.1841031 141.520138,42.1841031 L141.520138,42.1841031 Z" id="Shape" fill="#7D8888" fill-rule="nonzero"></path>
                    <polygon id="Shape" fill="#7D8888" fill-rule="nonzero" points="153.98431 51.1250666 151.740466 51.1250666 151.740466 47.6053484 148.855172 47.6053484 148.855172 51.1238453 146.611328 51.1238453 146.611328 42.6017796 148.855172 42.6017796 148.855172 45.6415362 151.746586 45.6415362 151.746586 42.6017796 153.990431 42.6017796"></polygon>
                    <path d="M162.71731,51.3277984 C160.341259,51.3277984 158.938397,50.203003 158.901672,48.2746078 L161.145517,48.2746078 C161.145517,49.2797182 161.840828,49.6180117 162.705069,49.6180117 C163.460362,49.6180117 163.98919,49.1869012 163.98919,48.5884758 C163.98919,47.8825781 163.424862,47.4990974 162.609586,47.4990974 L161.817569,47.4990974 L161.817569,45.9419702 C162.069741,45.9663957 162.357414,45.9663957 162.465138,45.9663957 C163.424862,45.9663957 163.772517,45.5230724 163.772517,45.0089151 C163.772517,44.5423876 163.328155,44.0990643 162.656103,44.0990643 C161.791862,44.0990643 161.309552,44.4581195 161.264259,45.1408129 L159.137931,45.1408129 C159.173431,43.3699624 160.469793,42.400269 162.60469,42.400269 C164.644103,42.400269 165.940466,43.2856943 165.940466,44.7707662 C165.940466,45.503532 165.376138,46.2424041 164.728569,46.480553 C165.646109,46.6666147 166.294947,47.4863491 166.263638,48.4199397 C166.268534,50.1553732 164.721224,51.3277984 162.71731,51.3277984 Z" id="Shape" fill="#7D8888" fill-rule="nonzero"></path>
                    <path d="M175.205966,51.1250666 L172.902138,51.1250666 L172.350052,49.5691606 L169.398655,49.5691606 L168.834328,51.1250666 L166.556207,51.1250666 L169.759776,42.5907881 L172.014638,42.5907881 L175.205966,51.1250666 Z M170.889655,44.9844896 L169.910345,47.9644036 L171.854276,47.9644036 L170.889655,44.9844896 Z" id="Shape" fill="#7D8888" fill-rule="nonzero"></path>
                    <path d="M183.291397,51.1250666 L181.119776,51.1250666 L181.275241,45.4510171 L178.356897,51.1250666 L175.908621,51.1250666 L175.908621,42.6017796 L178.080241,42.6017796 L177.995776,48.2758291 L180.911672,42.6017796 L183.287724,42.6017796 L183.291397,51.1250666 Z M179.764655,42.1841031 C178.637224,42.1841031 177.568552,41.6577331 177.568552,40.3766143 L178.601724,40.3766143 C178.709448,40.8431418 179.201552,41.0702992 179.765879,41.0702992 C180.330207,41.0702992 180.82231,40.8431418 180.930034,40.3766143 L181.961983,40.3766143 C181.959534,41.6565118 180.892086,42.1841031 179.764655,42.1841031 Z" id="Shape" fill="#7D8888" fill-rule="nonzero"></path>
                    <polygon id="Shape" fill="#7D8888" fill-rule="nonzero" points="184.875431 42.6017796 188.1145 42.6017796 189.674052 48.5151992 191.265431 42.6017796 194.421259 42.6017796 194.421259 51.1238453 192.312069 51.1238453 192.419793 44.6242131 190.512586 51.1238453 188.798793 51.1238453 186.902603 44.6364258 186.974828 51.1238453 184.875431 51.1238453"></polygon>
                    <path d="M199.978845,51.3277984 C197.339603,51.3277984 195.694362,49.4604671 195.694362,46.8628125 C195.694362,44.3372132 197.386121,42.3978265 199.953138,42.3978265 C202.496897,42.3978265 204.13969,44.13326 204.13969,46.8738039 C204.142138,49.3774203 202.570345,51.3277984 199.978845,51.3277984 Z M199.931103,44.2065366 C198.731448,44.2065366 197.972483,45.2238597 197.972483,46.8396082 C197.972483,48.5029865 198.706966,49.4971053 199.939672,49.4971053 C201.151569,49.4971053 201.859121,48.5042077 201.859121,46.8041912 C201.860345,45.1872214 201.125862,44.2102004 199.931103,44.2102004 L199.931103,44.2065366 Z" id="Shape" fill="#7D8888" fill-rule="nonzero"></path>
                    <path d="M205.38831,42.6017796 L209.68381,42.6017796 C211.158897,42.6017796 212.443017,43.164788 212.443017,44.7438982 C212.443017,45.5987915 212.047621,46.087302 211.327828,46.467119 C212.347534,46.8017486 212.862897,47.5088676 212.862897,48.5616077 C212.862897,49.3517735 212.575224,50.0100414 212.023138,50.4765689 C211.288655,51.0994198 210.463586,51.122624 209.539362,51.122624 L205.38831,51.122624 L205.38831,42.6017796 Z M209.167224,45.9529616 C209.922517,45.9529616 210.268948,45.7013787 210.268948,45.1273789 C210.268948,44.4214812 209.704621,44.3017962 209.104793,44.3017962 L207.569724,44.3017962 L207.569724,45.9541829 L209.167224,45.9529616 Z M209.334931,49.3639862 C210.006983,49.3639862 210.60681,49.2320884 210.60681,48.3942929 C210.60681,47.5564974 209.971483,47.4172719 209.274948,47.4172719 L207.570948,47.4172719 L207.570948,49.3713139 L209.334931,49.3639862 Z" id="Shape" fill="#7D8888" fill-rule="nonzero"></path>
                    <g id="Слой_2_копия4_" transform="translate(0.000000, 36.271905)" fill-rule="nonzero">
                        <rect id="Rectangle-path" fill="#FF8900" x="0.00489655172" y="0.0854893379" width="14.8402241" height="14.8067533"></rect>
                        <polygon id="Shape" fill="#FFA700" points="14.8451207 0.0854893379 0.00489655172 14.8922427 0.00489655172 0.0854893379"></polygon>
                    </g>
                    <g id="Слой_2_копия3_" transform="translate(14.812069, 36.271905)" fill-rule="nonzero">
                        <rect id="Rectangle-path" fill="#FFB83A" x="0.0355" y="0.0854893379" width="14.8402241" height="14.8067533"></rect>
                        <polygon id="Shape" fill="#FFCA49" points="14.8757241 0.0854893379 0.0355 14.8922427 0.0355 0.0854893379"></polygon>
                    </g>
                    <g id="Слой_2_копия2_" transform="translate(14.812069, 21.494462)" fill-rule="nonzero">
                        <rect id="Rectangle-path" fill="#B8BA3C" x="0.0355" y="0.0549574315" width="14.8402241" height="14.805532"></rect>
                        <polygon id="Shape" fill="#CACB4B" points="14.8757241 0.0549574315 0.0355 14.8604895 0.0355 0.0549574315"></polygon>
                    </g>
                    <g id="Слой_2_копия_" transform="translate(29.624138, 21.494462)" fill-rule="nonzero">
                        <rect id="Rectangle-path" fill="#71BB3E" x="0.0636551724" y="0.0549574315" width="14.8402241" height="14.805532"></rect>
                        <polygon id="Shape" fill="#8DCC4E" points="14.9038793 0.0549574315 0.0636551724 14.8604895 0.0636551724 0.0549574315"></polygon>
                    </g>
                    <g id="Слой_2" transform="translate(29.624138, 6.717019)" fill-rule="nonzero">
                        <rect id="Rectangle-path" fill="#4C9D33" x="0.0636551724" y="0.0256468014" width="14.8402241" height="14.805532"></rect>
                        <polygon id="Shape" fill="#5FB640" points="14.9038793 0.0256468014 0.0636551724 14.8324001 0.0636551724 0.0256468014"></polygon>
                    </g>
                </g>
            </g>
        </g>
    </g>
</svg>